<svg id="Camada_1" data-name="Camada 1" xmlns="http://www.w3.org/2000/svg" xmlns:xlink="http://www.w3.org/1999/xlink" viewBox="0 0 1080 1080"><defs><style>.cls-1{fill:#fff;}.cls-2{clip-path:url(#clip-path);}.cls-3{clip-path:url(#clip-path-2);}.cls-4{clip-path:url(#clip-path-3);}.cls-5{clip-path:url(#clip-path-4);}</style><clipPath id="clip-path"><path class="cls-1" d="M507.59,542.86c0,32.76.89,47,4.9,51,3.57,3.57,9.36,5.12,26.74,5.12,11.81,0,21.61-.22,27-6.68A31,31,0,0,0,572,579c.23-1.79.67-2.9,2-2.9,1.12,0,1.34.89,1.34,3.34s-1.56,15.83-3.35,22.29c-1.55,5.12-2.22,6-14,6-19.17,0-38.1-1.33-59.72-1.33-6.91,0-13.59.66-21.83.66-2.45,0-3.57-.44-3.57-1.78,0-.67.45-1.34,1.78-1.34a34.12,34.12,0,0,0,6.69-.89c4.46-.88,5.57-5.79,6.46-12.25,1.11-9.36,1.11-27,1.11-48.35V503.2c0-34.76,0-41-.44-48.13-.45-7.58-2.23-11.14-9.58-12.7a41.35,41.35,0,0,0-7.58-.67c-.89,0-1.78-.45-1.78-1.34,0-1.33,1.11-1.78,3.56-1.78,10,0,24.07.67,25.18.67s17.38-.67,24.07-.67c2.45,0,3.56.45,3.56,1.78,0,.89-.89,1.34-1.78,1.34a51.63,51.63,0,0,0-7.35.67c-6.47,1.12-8.25,4.9-8.69,12.7-.45,7.13-.45,13.37-.45,48.13Z"/></clipPath><clipPath id="clip-path-2"><path class="cls-1" d="M588.39,503.2c0-34.76,0-41-.44-48.13-.45-7.58-2.23-11.14-9.58-12.7a39.23,39.23,0,0,0-6.46-.67c-2,0-2.9-.45-2.9-1.34,0-1.33,1.11-1.78,3.56-1.78,10,0,24.07.67,25.18.67,5.35,0,14-.67,24.29-.67,36.54,0,44.56,22.28,44.56,33.43,0,18.27-10.47,29.18-20.94,40.1,16.49,5.13,38.55,20.95,38.55,47,0,23.84-18.72,48.57-56.82,48.57-2.45,0-9.58-.44-16-.67-6.47-.44-12.71-.66-13.6-.66-7.13,0-14,.66-21.83.66-2.45,0-3.57-.44-3.57-1.55,0-.67.45-1.57,3.35-1.57a23.08,23.08,0,0,0,5.34-.67c4.46-.89,5.35-6,6.24-12.47,1.11-9.36,1.11-27,1.11-48.35Zm17.83,4.9c0,1.56.45,2,1.56,2.45a79.18,79.18,0,0,0,13.59.89c12.48,0,15.6-.44,20.28-5.79a34.44,34.44,0,0,0,8-22.5c0-18.5-8.24-38.33-30.08-38.33a49.76,49.76,0,0,0-10.69,1.11c-2,.45-2.68,1.12-2.68,2.45Zm0,23.62c0,17.16,0,44.79.22,48.13.67,10.92.67,14,7.58,17.38,6,2.9,15.6,3.34,19.61,3.34,12,0,31.42-6.46,31.42-31.64,0-13.37-4.46-32.75-21.62-44.56-7.58-5.13-13.14-5.8-18.49-6.46-2.9-.45-14-.45-17.38-.45-.89,0-1.34.45-1.34,1.56Z"/></clipPath><clipPath id="clip-path-3"><path class="cls-1" d="M604,722.44A189.21,189.21,0,0,1,526,711a198,198,0,0,1-67.86-42.51,201.59,201.59,0,0,1-46-66.41,206.07,206.07,0,0,1-16.26-79.51A208.84,208.84,0,0,1,399.88,482a201.22,201.22,0,0,1,58.19-105.34,198.88,198.88,0,0,1,31.85-24.79,203,203,0,0,1,36-17.73A189.24,189.24,0,0,1,604,322.75c-26.15,1.87-51.67,8.08-74.91,19a203,203,0,0,0-61.79,44.16c-17.33,18.44-31.45,39.84-40.64,63.25a197.77,197.77,0,0,0-14.15,73.45c-.36,50.26,19.76,100.08,54.77,136.72a203.25,203.25,0,0,0,61.8,44.17C552.33,714.37,577.85,720.58,604,722.44Z"/></clipPath><clipPath id="clip-path-4"><path class="cls-1" d="M675.73,710.27l-7.1-5.26a24.07,24.07,0,0,0-4.37-8.19c-2.94-3.25-20.45-10.53-29.57-12.25,0,0,.38,17-11.49,17.85,0,0,8.79-7,6.4-23.36s-14.45-22.71-23.43-25.62-83.77-25.58-83.77-25.58,6.71,21.17,17.24,24.45c27.47,8.56,47,14.29,47,14.29a17.13,17.13,0,0,1,7.15,7L538,658.11s5.55,15.71,12.18,20.3l45.64,11.48s-.66,3.26-2.35,4.4l-42.54-10.6s4.82,16.83,18.82,23.13c0,0,11.55,4.88,20,5.38,0,0-16.49,1-25.82-4.32,0,0,5.63,16.08,30,15.65s35.85-8.55,49.64-8.62,29.07,4.05,34.94,8.29C678.54,723.2,678.79,715.83,675.73,710.27Zm-16-7a6.57,6.57,0,0,1-1.47-2.45,29.15,29.15,0,0,1,3.94,1.7c.77.56,1.31,2.7,1.31,2.7A15,15,0,0,1,659.7,703.25Z"/></clipPath></defs><path class="cls-1" d="M507.59,542.86c0,32.76.89,47,4.9,51,3.57,3.57,9.36,5.12,26.74,5.12,11.81,0,21.61-.22,27-6.68A31,31,0,0,0,572,579c.23-1.79.67-2.9,2-2.9,1.12,0,1.34.89,1.34,3.34s-1.56,15.83-3.35,22.29c-1.55,5.12-2.22,6-14,6-19.17,0-38.1-1.33-59.72-1.33-6.91,0-13.59.66-21.83.66-2.45,0-3.57-.44-3.57-1.78,0-.67.45-1.34,1.78-1.34a34.12,34.12,0,0,0,6.69-.89c4.46-.88,5.57-5.79,6.46-12.25,1.11-9.36,1.11-27,1.11-48.35V503.2c0-34.76,0-41-.44-48.13-.45-7.58-2.23-11.14-9.58-12.7a41.35,41.35,0,0,0-7.58-.67c-.89,0-1.78-.45-1.78-1.34,0-1.33,1.11-1.78,3.56-1.78,10,0,24.07.67,25.18.67s17.38-.67,24.07-.67c2.45,0,3.56.45,3.56,1.78,0,.89-.89,1.34-1.78,1.34a51.63,51.63,0,0,0-7.35.67c-6.47,1.12-8.25,4.9-8.69,12.7-.45,7.13-.45,13.37-.45,48.13Z"/><g class="cls-2"><rect class="cls-1" x="469.49" y="438.58" width="4.6" height="169.12"/><rect class="cls-1" x="474.09" y="438.58" width="4.6" height="169.12"/><rect class="cls-1" x="478.69" y="438.58" width="4.6" height="169.12"/><rect class="cls-1" x="483.29" y="438.58" width="4.6" height="169.12"/><rect class="cls-1" x="487.88" y="438.58" width="4.6" height="169.12"/><rect class="cls-1" x="492.48" y="438.58" width="4.6" height="169.12"/><rect class="cls-1" x="497.08" y="438.58" width="4.6" height="169.12"/><rect class="cls-1" x="501.68" y="438.58" width="4.6" height="169.12"/><rect class="cls-1" x="506.28" y="438.58" width="4.6" height="169.12"/><rect class="cls-1" x="510.88" y="438.58" width="4.6" height="169.12"/><rect class="cls-1" x="515.48" y="438.58" width="4.6" height="169.12"/><rect class="cls-1" x="520.08" y="438.58" width="4.6" height="169.12"/><rect class="cls-1" x="524.68" y="438.58" width="4.6" height="169.12"/><rect class="cls-1" x="529.28" y="438.58" width="4.6" height="169.12"/><rect class="cls-1" x="533.88" y="438.58" width="4.6" height="169.12"/><rect class="cls-1" x="538.48" y="438.58" width="4.6" height="169.12"/><rect class="cls-1" x="543.08" y="438.58" width="4.6" height="169.12"/><rect class="cls-1" x="547.68" y="438.58" width="4.6" height="169.12"/><rect class="cls-1" x="552.28" y="438.58" width="4.6" height="169.12"/><rect class="cls-1" x="556.88" y="438.58" width="4.6" height="169.12"/><rect class="cls-1" x="561.48" y="438.58" width="4.6" height="169.12"/><rect class="cls-1" x="566.08" y="438.58" width="4.6" height="169.12"/><rect class="cls-1" x="570.67" y="438.58" width="4.6" height="169.12"/><rect class="cls-1" x="575.27" y="438.58" width="0.05" height="169.12"/></g><path class="cls-1" d="M588.39,503.2c0-34.76,0-41-.44-48.13-.45-7.58-2.23-11.14-9.58-12.7a39.23,39.23,0,0,0-6.46-.67c-2,0-2.9-.45-2.9-1.34,0-1.33,1.11-1.78,3.56-1.78,10,0,24.07.67,25.18.67,5.35,0,14-.67,24.29-.67,36.54,0,44.56,22.28,44.56,33.43,0,18.27-10.47,29.18-20.94,40.1,16.49,5.13,38.55,20.95,38.55,47,0,23.84-18.72,48.57-56.82,48.57-2.45,0-9.58-.44-16-.67-6.47-.44-12.71-.66-13.6-.66-7.13,0-14,.66-21.83.66-2.45,0-3.57-.44-3.57-1.55,0-.67.45-1.57,3.35-1.57a23.08,23.08,0,0,0,5.34-.67c4.46-.89,5.35-6,6.24-12.47,1.11-9.36,1.11-27,1.11-48.35Zm17.83,4.9c0,1.56.45,2,1.56,2.45a79.18,79.18,0,0,0,13.59.89c12.48,0,15.6-.44,20.28-5.79a34.44,34.44,0,0,0,8-22.5c0-18.5-8.24-38.33-30.08-38.33a49.76,49.76,0,0,0-10.69,1.11c-2,.45-2.68,1.12-2.68,2.45Zm0,23.62c0,17.16,0,44.79.22,48.13.67,10.92.67,14,7.58,17.38,6,2.9,15.6,3.34,19.61,3.34,12,0,31.42-6.46,31.42-31.64,0-13.37-4.46-32.75-21.62-44.56-7.58-5.13-13.14-5.8-18.49-6.46-2.9-.45-14-.45-17.38-.45-.89,0-1.34.45-1.34,1.56Z"/><g class="cls-3"><rect class="cls-1" x="606.22" y="517.46" width="2.84" height="83.11"/><rect class="cls-1" x="609.06" y="517.46" width="5.01" height="83.11"/><rect class="cls-1" x="614.06" y="517.46" width="5.01" height="83.11"/><rect class="cls-1" x="619.07" y="517.46" width="5.01" height="83.11"/><rect class="cls-1" x="624.08" y="517.46" width="5.01" height="83.11"/><rect class="cls-1" x="629.08" y="517.46" width="5.01" height="83.11"/><rect class="cls-1" x="634.09" y="517.46" width="5.01" height="83.11"/><rect class="cls-1" x="639.09" y="517.46" width="5.01" height="83.11"/><rect class="cls-1" x="644.1" y="517.46" width="5.01" height="83.11"/><rect class="cls-1" x="649.11" y="517.46" width="5.01" height="83.11"/><rect class="cls-1" x="654.11" y="517.46" width="5.01" height="83.11"/><rect class="cls-1" x="659.12" y="517.46" width="5.01" height="83.11"/><rect class="cls-1" x="664.12" y="517.46" width="0.92" height="83.11"/><rect class="cls-1" x="606.22" y="444.82" width="2.84" height="66.62"/><rect class="cls-1" x="609.06" y="444.82" width="5.01" height="66.62"/><rect class="cls-1" x="614.06" y="444.82" width="5.01" height="66.62"/><rect class="cls-1" x="619.07" y="444.82" width="5.01" height="66.62"/><rect class="cls-1" x="624.08" y="444.82" width="5.01" height="66.62"/><rect class="cls-1" x="629.08" y="444.82" width="5.01" height="66.62"/><rect class="cls-1" x="634.09" y="444.82" width="5.01" height="66.62"/><rect class="cls-1" x="639.09" y="444.82" width="5.01" height="66.62"/><rect class="cls-1" x="644.1" y="444.82" width="5.01" height="66.62"/><rect class="cls-1" x="649.11" y="444.82" width="0.57" height="66.62"/><rect class="cls-1" x="569.01" y="438.58" width="5.01" height="169.12"/><rect class="cls-1" x="574.01" y="438.58" width="5.01" height="169.12"/><rect class="cls-1" x="579.02" y="438.58" width="5.01" height="169.12"/><rect class="cls-1" x="584.03" y="438.58" width="5.01" height="169.12"/><rect class="cls-1" x="589.03" y="438.58" width="5.01" height="169.12"/><rect class="cls-1" x="594.04" y="438.58" width="5.01" height="169.12"/><rect class="cls-1" x="599.05" y="438.58" width="5.01" height="169.12"/><rect class="cls-1" x="604.05" y="438.58" width="5.01" height="169.12"/><rect class="cls-1" x="609.06" y="438.58" width="5.01" height="169.12"/><rect class="cls-1" x="614.06" y="438.58" width="5.01" height="169.12"/><rect class="cls-1" x="619.07" y="438.58" width="5.01" height="169.12"/><rect class="cls-1" x="624.08" y="438.58" width="5.01" height="169.12"/><rect class="cls-1" x="629.08" y="438.58" width="5.01" height="169.12"/><rect class="cls-1" x="634.09" y="438.58" width="5.01" height="169.12"/><rect class="cls-1" x="639.09" y="438.58" width="5.01" height="169.12"/><rect class="cls-1" x="644.1" y="438.58" width="5.01" height="169.12"/><rect class="cls-1" x="649.11" y="438.58" width="5.01" height="169.12"/><rect class="cls-1" x="654.11" y="438.58" width="5.01" height="169.12"/><rect class="cls-1" x="659.12" y="438.58" width="5.01" height="169.12"/><rect class="cls-1" x="664.12" y="438.58" width="5.01" height="169.12"/><rect class="cls-1" x="669.13" y="438.58" width="5.01" height="169.12"/><rect class="cls-1" x="674.14" y="438.58" width="5.01" height="169.12"/><rect class="cls-1" x="679.14" y="438.58" width="5.01" height="169.12"/><rect class="cls-1" x="684.15" y="438.58" width="0.06" height="169.12"/></g><path class="cls-1" d="M604,722.44A189.21,189.21,0,0,1,526,711a198,198,0,0,1-67.86-42.51,201.59,201.59,0,0,1-46-66.41,206.07,206.07,0,0,1-16.26-79.51A208.84,208.84,0,0,1,399.88,482a201.22,201.22,0,0,1,58.19-105.34,198.88,198.88,0,0,1,31.85-24.79,203,203,0,0,1,36-17.73A189.24,189.24,0,0,1,604,322.75c-26.15,1.87-51.67,8.08-74.91,19a203,203,0,0,0-61.79,44.16c-17.33,18.44-31.45,39.84-40.64,63.25a197.77,197.77,0,0,0-14.15,73.45c-.36,50.26,19.76,100.08,54.77,136.72a203.25,203.25,0,0,0,61.8,44.17C552.33,714.37,577.85,720.58,604,722.44Z"/><g class="cls-4"><rect class="cls-1" x="395.79" y="320.89" width="9.05" height="403.39"/><rect class="cls-1" x="404.84" y="320.89" width="9.05" height="403.39"/><rect class="cls-1" x="413.89" y="320.89" width="9.05" height="403.39"/><rect class="cls-1" x="422.94" y="320.89" width="9.05" height="403.39"/><rect class="cls-1" x="431.98" y="320.89" width="9.05" height="403.39"/><rect class="cls-1" x="441.03" y="320.89" width="9.05" height="403.39"/><rect class="cls-1" x="450.08" y="320.89" width="9.05" height="403.39"/><rect class="cls-1" x="459.13" y="320.89" width="9.05" height="403.39"/><rect class="cls-1" x="468.18" y="320.89" width="9.05" height="403.39"/><rect class="cls-1" x="477.22" y="320.89" width="9.05" height="403.39"/><rect class="cls-1" x="486.27" y="320.89" width="9.05" height="403.39"/><rect class="cls-1" x="495.32" y="320.89" width="9.05" height="403.39"/><rect class="cls-1" x="504.37" y="320.89" width="9.05" height="403.39"/><rect class="cls-1" x="513.41" y="320.89" width="9.05" height="403.39"/><rect class="cls-1" x="522.46" y="320.89" width="9.05" height="403.39"/><rect class="cls-1" x="531.51" y="320.89" width="9.05" height="403.39"/><rect class="cls-1" x="540.56" y="320.89" width="9.05" height="403.39"/><rect class="cls-1" x="549.61" y="320.89" width="9.05" height="403.39"/><rect class="cls-1" x="558.65" y="320.89" width="9.05" height="403.39"/><rect class="cls-1" x="567.7" y="320.89" width="9.05" height="403.39"/><rect class="cls-1" x="576.75" y="320.89" width="9.05" height="403.39"/><rect class="cls-1" x="585.8" y="320.89" width="9.05" height="403.39"/><rect class="cls-1" x="594.85" y="320.89" width="9.05" height="403.39"/><rect class="cls-1" x="603.89" y="320.89" width="0.11" height="403.39"/></g><path class="cls-1" d="M675.73,710.27l-7.1-5.26a24.07,24.07,0,0,0-4.37-8.19c-2.94-3.25-20.45-10.53-29.57-12.25,0,0,.38,17-11.49,17.85,0,0,8.79-7,6.4-23.36s-14.45-22.71-23.43-25.62-83.77-25.58-83.77-25.58,6.71,21.17,17.24,24.45c27.47,8.56,47,14.29,47,14.29a17.13,17.13,0,0,1,7.15,7L538,658.11s5.55,15.71,12.18,20.3l45.64,11.48s-.66,3.26-2.35,4.4l-42.54-10.6s4.82,16.83,18.82,23.13c0,0,11.55,4.88,20,5.38,0,0-16.49,1-25.82-4.32,0,0,5.63,16.08,30,15.65s35.85-8.55,49.64-8.62,29.07,4.05,34.94,8.29C678.54,723.2,678.79,715.83,675.73,710.27Zm-16-7a6.57,6.57,0,0,1-1.47-2.45,29.15,29.15,0,0,1,3.94,1.7c.77.56,1.31,2.7,1.31,2.7A15,15,0,0,1,659.7,703.25Z"/><g class="cls-5"><polygon class="cls-1" points="662.59 700.8 663.48 704.91 663.48 705.2 658.23 705.2 658.23 700.8 662.59 700.8"/><polygon class="cls-1" points="663.48 704.91 662.59 700.8 663.48 700.8 663.48 704.91"/><polygon class="cls-1" points="522.4 627.86 522.4 627.86 543.24 723.96 522.4 723.96 522.4 627.86"/><polygon class="cls-1" points="528.32 627.86 549.16 723.96 543.24 723.96 522.4 627.86 528.32 627.86"/><polygon class="cls-1" points="534.25 627.86 555.08 723.96 549.16 723.96 528.32 627.86 534.25 627.86"/><polygon class="cls-1" points="540.17 627.86 561.01 723.96 555.08 723.96 534.25 627.86 540.17 627.86"/><polygon class="cls-1" points="546.09 627.86 566.93 723.96 561.01 723.96 540.17 627.86 546.09 627.86"/><polygon class="cls-1" points="552.01 627.86 572.85 723.96 566.93 723.96 546.09 627.86 552.01 627.86"/><polygon class="cls-1" points="557.94 627.86 578.77 723.96 572.85 723.96 552.01 627.86 557.94 627.86"/><polygon class="cls-1" points="563.86 627.86 584.7 723.96 578.77 723.96 557.94 627.86 563.86 627.86"/><polygon class="cls-1" points="569.78 627.86 590.62 723.96 584.7 723.96 563.86 627.86 569.78 627.86"/><polygon class="cls-1" points="575.7 627.86 596.54 723.96 590.62 723.96 569.78 627.86 575.7 627.86"/><polygon class="cls-1" points="581.63 627.86 602.46 723.96 596.54 723.96 575.7 627.86 581.63 627.86"/><polygon class="cls-1" points="587.55 627.86 608.39 723.96 602.46 723.96 581.63 627.86 587.55 627.86"/><polygon class="cls-1" points="593.47 627.86 614.31 723.96 608.39 723.96 587.55 627.86 593.47 627.86"/><polygon class="cls-1" points="599.39 627.86 620.23 723.96 614.31 723.96 593.47 627.86 599.39 627.86"/><polygon class="cls-1" points="605.32 627.86 626.15 723.96 620.23 723.96 599.39 627.86 605.32 627.86"/><polygon class="cls-1" points="611.24 627.86 632.08 723.96 626.15 723.96 605.32 627.86 611.24 627.86"/><polygon class="cls-1" points="617.16 627.86 638 723.96 632.08 723.96 611.24 627.86 617.16 627.86"/><polygon class="cls-1" points="623.08 627.86 643.92 723.96 638 723.96 617.16 627.86 623.08 627.86"/><polygon class="cls-1" points="629.01 627.86 649.84 723.96 643.92 723.96 623.08 627.86 629.01 627.86"/><polygon class="cls-1" points="634.93 627.86 655.77 723.96 649.84 723.96 629.01 627.86 634.93 627.86"/><polygon class="cls-1" points="640.85 627.86 661.69 723.96 655.77 723.96 634.93 627.86 640.85 627.86"/><polygon class="cls-1" points="646.77 627.86 667.61 723.96 661.69 723.96 640.85 627.86 646.77 627.86"/><polygon class="cls-1" points="652.7 627.86 673.53 723.96 667.61 723.96 646.77 627.86 652.7 627.86"/><polygon class="cls-1" points="658.62 627.86 678.79 720.89 678.79 723.96 673.53 723.96 652.7 627.86 658.62 627.86"/><polygon class="cls-1" points="678.79 720.89 658.62 627.86 678.79 627.86 678.79 720.89"/></g></svg>